# Blender v2.91.2 OBJ File: ''
# www.blender.org
mtllib FlagFahne.mtl
o Cylinder
v 0.000000 -1.550000 -0.070000
v 0.000000 1.550000 -0.070000
v 0.013656 -1.550000 -0.068655
v 0.013656 1.550000 -0.068655
v 0.026788 -1.550000 -0.064672
v 0.026788 1.550000 -0.064672
v 0.038890 -1.550000 -0.058203
v 0.038890 1.550000 -0.058203
v 0.049497 -1.550000 -0.049497
v 0.049497 1.550000 -0.049497
v 0.058203 -1.550000 -0.038890
v 0.058203 1.550000 -0.038890
v 0.064672 -1.550000 -0.026788
v 0.064672 1.550000 -0.026788
v 0.068655 -1.550000 -0.013656
v 0.068655 1.550000 -0.013656
v 0.070000 -1.550000 -0.000000
v 0.070000 1.550000 -0.000000
v 0.068655 -1.550000 0.013656
v 0.068655 1.550000 0.013656
v 0.064672 -1.550000 0.026788
v 0.064672 1.550000 0.026788
v 0.058203 -1.550000 0.038890
v 0.058203 1.550000 0.038890
v 0.049497 -1.550000 0.049497
v 0.049497 1.550000 0.049497
v 0.038890 -1.550000 0.058203
v 0.038890 1.550000 0.058203
v 0.026788 -1.550000 0.064672
v 0.026788 1.550000 0.064672
v 0.013656 -1.550000 0.068655
v 0.013656 1.550000 0.068655
v -0.000000 -1.550000 0.070000
v -0.000000 1.550000 0.070000
v -0.013656 -1.550000 0.068655
v -0.013656 1.550000 0.068655
v -0.026788 -1.550000 0.064672
v -0.026788 1.550000 0.064672
v -0.038890 -1.550000 0.058203
v -0.038890 1.550000 0.058203
v -0.049498 -1.550000 0.049497
v -0.049498 1.550000 0.049497
v -0.058203 -1.550000 0.038890
v -0.058203 1.550000 0.038890
v -0.064672 -1.550000 0.026788
v -0.064672 1.550000 0.026788
v -0.068655 -1.550000 0.013656
v -0.068655 1.550000 0.013656
v -0.070000 -1.550000 -0.000000
v -0.070000 1.550000 -0.000000
v -0.068655 -1.550000 -0.013656
v -0.068655 1.550000 -0.013656
v -0.064672 -1.550000 -0.026788
v -0.064672 1.550000 -0.026788
v -0.058203 -1.550000 -0.038890
v -0.058203 1.550000 -0.038890
v -0.049497 -1.550000 -0.049498
v -0.049497 1.550000 -0.049498
v -0.038890 -1.550000 -0.058203
v -0.038890 1.550000 -0.058203
v -0.026788 -1.550000 -0.064672
v -0.026788 1.550000 -0.064672
v -0.013656 -1.550000 -0.068655
v -0.013656 1.550000 -0.068655
vt 1.000000 0.500000
vt 1.000000 1.000000
vt 0.968750 1.000000
vt 0.968750 0.500000
vt 0.937500 1.000000
vt 0.937500 0.500000
vt 0.906250 1.000000
vt 0.906250 0.500000
vt 0.875000 1.000000
vt 0.875000 0.500000
vt 0.843750 1.000000
vt 0.843750 0.500000
vt 0.812500 1.000000
vt 0.812500 0.500000
vt 0.781250 1.000000
vt 0.781250 0.500000
vt 0.750000 1.000000
vt 0.750000 0.500000
vt 0.718750 1.000000
vt 0.718750 0.500000
vt 0.687500 1.000000
vt 0.687500 0.500000
vt 0.656250 1.000000
vt 0.656250 0.500000
vt 0.625000 1.000000
vt 0.625000 0.500000
vt 0.593750 1.000000
vt 0.593750 0.500000
vt 0.562500 1.000000
vt 0.562500 0.500000
vt 0.531250 1.000000
vt 0.531250 0.500000
vt 0.500000 1.000000
vt 0.500000 0.500000
vt 0.468750 1.000000
vt 0.468750 0.500000
vt 0.437500 1.000000
vt 0.437500 0.500000
vt 0.406250 1.000000
vt 0.406250 0.500000
vt 0.375000 1.000000
vt 0.375000 0.500000
vt 0.343750 1.000000
vt 0.343750 0.500000
vt 0.312500 1.000000
vt 0.312500 0.500000
vt 0.281250 1.000000
vt 0.281250 0.500000
vt 0.250000 1.000000
vt 0.250000 0.500000
vt 0.218750 1.000000
vt 0.218750 0.500000
vt 0.187500 1.000000
vt 0.187500 0.500000
vt 0.156250 1.000000
vt 0.156250 0.500000
vt 0.125000 1.000000
vt 0.125000 0.500000
vt 0.093750 1.000000
vt 0.093750 0.500000
vt 0.062500 1.000000
vt 0.062500 0.500000
vt 0.296822 0.485388
vt 0.250000 0.490000
vt 0.203179 0.485389
vt 0.158156 0.471731
vt 0.116663 0.449553
vt 0.080295 0.419706
vt 0.050447 0.383337
vt 0.028269 0.341844
vt 0.014612 0.296822
vt 0.010000 0.250000
vt 0.014612 0.203179
vt 0.028269 0.158156
vt 0.050447 0.116663
vt 0.080294 0.080294
vt 0.116663 0.050447
vt 0.158156 0.028269
vt 0.203178 0.014612
vt 0.250000 0.010000
vt 0.296822 0.014612
vt 0.341844 0.028269
vt 0.383337 0.050447
vt 0.419706 0.080294
vt 0.449553 0.116663
vt 0.471731 0.158156
vt 0.485388 0.203178
vt 0.490000 0.250000
vt 0.485388 0.296822
vt 0.471731 0.341844
vt 0.449553 0.383337
vt 0.419706 0.419706
vt 0.383337 0.449553
vt 0.341844 0.471731
vt 0.031250 1.000000
vt 0.031250 0.500000
vt 0.000000 1.000000
vt 0.000000 0.500000
vt 0.750000 0.490000
vt 0.796822 0.485388
vt 0.841844 0.471731
vt 0.883337 0.449553
vt 0.919706 0.419706
vt 0.949553 0.383337
vt 0.971731 0.341844
vt 0.985388 0.296822
vt 0.990000 0.250000
vt 0.985388 0.203178
vt 0.971731 0.158156
vt 0.949553 0.116663
vt 0.919706 0.080294
vt 0.883337 0.050447
vt 0.841844 0.028269
vt 0.796822 0.014612
vt 0.750000 0.010000
vt 0.703178 0.014612
vt 0.658156 0.028269
vt 0.616663 0.050447
vt 0.580294 0.080294
vt 0.550447 0.116663
vt 0.528269 0.158156
vt 0.514611 0.203179
vt 0.510000 0.250000
vt 0.514612 0.296822
vt 0.528269 0.341844
vt 0.550447 0.383337
vt 0.580295 0.419706
vt 0.616663 0.449553
vt 0.658156 0.471731
vt 0.703179 0.485389
vn 0.0980 0.0000 -0.9952
vn 0.2903 0.0000 -0.9569
vn 0.4714 0.0000 -0.8819
vn 0.6344 0.0000 -0.7730
vn 0.7730 0.0000 -0.6344
vn 0.8819 0.0000 -0.4714
vn 0.9569 0.0000 -0.2903
vn 0.9952 0.0000 -0.0980
vn 0.9952 0.0000 0.0980
vn 0.9569 0.0000 0.2903
vn 0.8819 0.0000 0.4714
vn 0.7730 0.0000 0.6344
vn 0.6344 0.0000 0.7730
vn 0.4714 0.0000 0.8819
vn 0.2903 0.0000 0.9569
vn 0.0980 0.0000 0.9952
vn -0.0980 0.0000 0.9952
vn -0.2903 0.0000 0.9569
vn -0.4714 0.0000 0.8819
vn -0.6344 0.0000 0.7730
vn -0.7730 0.0000 0.6344
vn -0.8819 0.0000 0.4714
vn -0.9569 0.0000 0.2903
vn -0.9952 0.0000 0.0980
vn -0.9952 0.0000 -0.0980
vn -0.9569 0.0000 -0.2903
vn -0.8819 0.0000 -0.4714
vn -0.7730 0.0000 -0.6344
vn -0.6344 0.0000 -0.7730
vn -0.4714 0.0000 -0.8819
vn 0.0000 1.0000 -0.0000
vn -0.2903 0.0000 -0.9569
vn -0.0980 0.0000 -0.9952
vn 0.0000 -1.0000 -0.0000
usemtl None
s off
f 1/1/1 2/2/1 4/3/1 3/4/1
f 3/4/2 4/3/2 6/5/2 5/6/2
f 5/6/3 6/5/3 8/7/3 7/8/3
f 7/8/4 8/7/4 10/9/4 9/10/4
f 9/10/5 10/9/5 12/11/5 11/12/5
f 11/12/6 12/11/6 14/13/6 13/14/6
f 13/14/7 14/13/7 16/15/7 15/16/7
f 15/16/8 16/15/8 18/17/8 17/18/8
f 17/18/9 18/17/9 20/19/9 19/20/9
f 19/20/10 20/19/10 22/21/10 21/22/10
f 21/22/11 22/21/11 24/23/11 23/24/11
f 23/24/12 24/23/12 26/25/12 25/26/12
f 25/26/13 26/25/13 28/27/13 27/28/13
f 27/28/14 28/27/14 30/29/14 29/30/14
f 29/30/15 30/29/15 32/31/15 31/32/15
f 31/32/16 32/31/16 34/33/16 33/34/16
f 33/34/17 34/33/17 36/35/17 35/36/17
f 35/36/18 36/35/18 38/37/18 37/38/18
f 37/38/19 38/37/19 40/39/19 39/40/19
f 39/40/20 40/39/20 42/41/20 41/42/20
f 41/42/21 42/41/21 44/43/21 43/44/21
f 43/44/22 44/43/22 46/45/22 45/46/22
f 45/46/23 46/45/23 48/47/23 47/48/23
f 47/48/24 48/47/24 50/49/24 49/50/24
f 49/50/25 50/49/25 52/51/25 51/52/25
f 51/52/26 52/51/26 54/53/26 53/54/26
f 53/54/27 54/53/27 56/55/27 55/56/27
f 55/56/28 56/55/28 58/57/28 57/58/28
f 57/58/29 58/57/29 60/59/29 59/60/29
f 59/60/30 60/59/30 62/61/30 61/62/30
f 4/63/31 2/64/31 64/65/31 62/66/31 60/67/31 58/68/31 56/69/31 54/70/31 52/71/31 50/72/31 48/73/31 46/74/31 44/75/31 42/76/31 40/77/31 38/78/31 36/79/31 34/80/31 32/81/31 30/82/31 28/83/31 26/84/31 24/85/31 22/86/31 20/87/31 18/88/31 16/89/31 14/90/31 12/91/31 10/92/31 8/93/31 6/94/31
f 61/62/32 62/61/32 64/95/32 63/96/32
f 63/96/33 64/95/33 2/97/33 1/98/33
f 1/99/34 3/100/34 5/101/34 7/102/34 9/103/34 11/104/34 13/105/34 15/106/34 17/107/34 19/108/34 21/109/34 23/110/34 25/111/34 27/112/34 29/113/34 31/114/34 33/115/34 35/116/34 37/117/34 39/118/34 41/119/34 43/120/34 45/121/34 47/122/34 49/123/34 51/124/34 53/125/34 55/126/34 57/127/34 59/128/34 61/129/34 63/130/34
o Cube_Cube.001
v -0.042996 -0.169578 -0.023677
v -0.042996 1.515502 -0.023677
v -0.042996 -0.169578 -0.778644
v -0.042996 1.515502 -0.778644
v 0.045998 -0.169578 -0.023677
v 0.045998 1.515502 -0.023677
v 0.045998 -0.169578 -0.778644
v 0.045998 1.515502 -0.778644
v -0.042403 1.237150 -0.130853
v -0.042996 1.232435 -0.778644
v 0.045998 1.232435 -0.778644
v 0.046591 1.237150 -0.130853
v -0.042996 1.033129 -0.778644
v 0.045998 1.033129 -0.778644
v 0.046591 1.037844 -0.130853
v -0.042403 1.037844 -0.130853
v -0.042996 0.769595 -0.778644
v 0.045998 0.769595 -0.778644
v 0.045998 0.769595 -0.023677
v -0.042996 0.769595 -0.023677
v -0.042996 0.558678 -0.778644
v 0.045998 0.558678 -0.778644
v 0.045998 0.558678 -0.023677
v -0.042996 0.558678 -0.023677
v -0.042996 0.273237 -0.778644
v 0.045998 0.273237 -0.778644
v 0.046317 0.278419 -0.127441
v -0.042678 0.278419 -0.127441
v -0.042996 0.052319 -0.778644
v 0.045998 0.052319 -0.778644
v 0.046317 0.057501 -0.127441
v -0.042678 0.057501 -0.127441
v -0.042403 1.237150 -0.130853
v 0.046591 1.237150 -0.130853
v 0.046591 1.037844 -0.130853
v -0.042403 1.037844 -0.130853
vt 0.583004 0.000000
vt 0.625000 0.000000
vt 0.625000 0.250000
vt 0.583004 0.250000
vt 0.625000 0.500000
vt 0.583004 0.500000
vt 0.625000 0.750000
vt 0.583004 0.750000
vt 0.625000 1.000000
vt 0.583004 1.000000
vt 0.125000 0.500000
vt 0.375000 0.500000
vt 0.375000 0.750000
vt 0.125000 0.750000
vt 0.875000 0.500000
vt 0.875000 0.750000
vt 0.583004 1.000000
vt 0.583004 0.750000
vt 0.553435 0.500000
vt 0.553435 0.750000
vt 0.553435 0.250000
vt 0.553435 0.000000
vt 0.514337 0.000000
vt 0.514337 0.250000
vt 0.514337 0.500000
vt 0.514337 0.750000
vt 0.553435 1.000000
vt 0.514337 1.000000
vt 0.483045 0.750000
vt 0.483045 1.000000
vt 0.483045 0.500000
vt 0.483045 0.250000
vt 0.483045 0.000000
vt 0.440697 0.000000
vt 0.440697 0.250000
vt 0.440697 0.500000
vt 0.440697 0.750000
vt 0.440697 1.000000
vt 0.407921 0.750000
vt 0.407921 1.000000
vt 0.407921 0.500000
vt 0.407921 0.250000
vt 0.407921 0.000000
vt 0.375000 0.000000
vt 0.375000 0.250000
vt 0.375000 1.000000
vt 0.553435 0.750000
vt 0.553435 1.000000
vt 0.553435 0.000000
vt 0.583004 0.000000
vn -1.0000 -0.0011 0.0004
vn 0.0000 0.0000 -1.0000
vn 1.0000 0.0011 -0.0004
vn 0.0000 -0.3593 0.9332
vn 0.0000 -1.0000 0.0000
vn 0.0000 1.0000 0.0000
vn 0.0000 0.0000 1.0000
vn 1.0000 0.0000 -0.0009
vn -1.0000 0.0000 0.0009
vn -1.0000 0.0012 0.0004
vn 1.0000 -0.0012 -0.0004
vn 0.0000 0.3710 0.9286
vn 1.0000 0.0000 0.0000
vn -1.0000 0.0000 0.0000
vn -1.0000 -0.0006 0.0002
vn 1.0000 0.0006 -0.0002
vn 0.0000 -0.3472 0.9378
vn 1.0000 0.0000 -0.0005
vn -1.0000 0.0000 0.0005
vn -1.0000 0.0008 0.0002
vn 1.0000 -0.0008 -0.0002
vn -0.0000 0.4156 0.9095
usemtl None
s off
f 73/131/35 66/132/35 68/133/35 74/134/35
f 74/134/36 68/133/36 72/135/36 75/136/36
f 75/136/37 72/135/37 70/137/37 76/138/37
f 76/138/38 70/137/38 66/139/38 73/140/38
f 67/141/39 71/142/39 69/143/39 65/144/39
f 72/135/40 68/145/40 66/146/40 70/137/40
f 76/138/41 73/140/41 97/147/41 98/148/41
f 78/149/42 75/136/42 76/138/42 79/150/42
f 77/151/36 74/134/36 75/136/36 78/149/36
f 80/152/43 73/131/43 74/134/43 77/151/43
f 84/153/44 80/152/44 77/151/44 81/154/44
f 81/154/36 77/151/36 78/149/36 82/155/36
f 82/155/45 78/149/45 79/150/45 83/156/45
f 83/156/46 79/150/46 80/157/46 84/158/46
f 87/159/41 83/156/41 84/158/41 88/160/41
f 86/161/47 82/155/47 83/156/47 87/159/47
f 85/162/36 81/154/36 82/155/36 86/161/36
f 88/163/48 84/153/48 81/154/48 85/162/48
f 92/164/49 88/163/49 85/162/49 89/165/49
f 89/165/36 85/162/36 86/161/36 90/166/36
f 90/166/50 86/161/50 87/159/50 91/167/50
f 91/167/51 87/159/51 88/160/51 92/168/51
f 95/169/41 91/167/41 92/168/41 96/170/41
f 94/171/52 90/166/52 91/167/52 95/169/52
f 93/172/36 89/165/36 90/166/36 94/171/36
f 96/173/53 92/164/53 89/165/53 93/172/53
f 65/174/54 96/173/54 93/172/54 67/175/54
f 67/175/36 93/172/36 94/171/36 71/142/36
f 71/142/55 94/171/55 95/169/55 69/143/55
f 69/143/56 95/169/56 96/170/56 65/176/56
f 99/177/41 98/148/41 97/147/41 100/178/41
f 80/157/41 79/150/41 99/177/41 100/178/41
f 73/131/41 80/152/41 100/179/41 97/180/41
f 79/150/41 76/138/41 98/148/41 99/177/41
